<svg xmlns="http://www.w3.org/2000/svg" viewBox="0 0 64 64" shape-rendering="crispEdges">
  <rect width="64" height="64" rx="10" fill="#1a1a2e"/>
  <rect x="2" y="2" width="60" height="60" rx="9" fill="none" stroke="#e94560" stroke-width="2"/>
  <g fill="#edf2f4">
    <path d="M32 12c-9 0-16 7-16 16v6c0 3 1 5 3 6l2 1v5c0 2 2 4 4 4h2v-5h2v5h6v-5h2v5h2c2 0 4-2 4-4v-5l2-1c2-1 3-3 3-6v-6c0-9-7-16-16-16z"/>
  </g>
  <g fill="#1a1a2e">
    <circle cx="24" cy="30" r="4"/>
    <circle cx="40" cy="30" r="4"/>
    <rect x="29" y="36" width="2" height="4"/>
    <rect x="33" y="36" width="2" height="4"/>
    <rect x="24" y="44" width="2" height="2"/>
    <rect x="28" y="44" width="2" height="2"/>
    <rect x="32" y="44" width="2" height="2"/>
    <rect x="36" y="44" width="2" height="2"/>
    <rect x="40" y="44" width="2" height="2"/>
  </g>
  <rect x="6" y="24" width="52" height="1" fill="#e94560" opacity="0.45"/>
  <rect x="6" y="42" width="52" height="1" fill="#e94560" opacity="0.3"/>
</svg>
